<?xml version="1.0" standalone="no"?>
<!DOCTYPE svg PUBLIC "-//W3C//DTD SVG 20010904//EN"
 "http://www.w3.org/TR/2001/REC-SVG-20010904/DTD/svg10.dtd">
<svg version="1.0" xmlns="http://www.w3.org/2000/svg"
 width="500.000000pt" height="500.000000pt" viewBox="0 0 500.000000 500.000000"
 preserveAspectRatio="xMidYMid meet">
<metadata>
Created by potrace 1.16, written by Peter Selinger 2001-2019
</metadata>
<g transform="translate(0.000000,500.000000) scale(0.100000,-0.100000)"
fill="#000000" stroke="none">
<path d="M0 2500 l0 -2500 433 0 432 0 25 37 c14 21 189 274 390 563 201 289
378 546 395 570 16 25 32 47 36 50 3 3 36 50 74 105 38 55 192 278 344 495
151 217 306 441 345 497 39 56 125 180 191 275 66 95 145 209 176 253 51 73
222 320 375 540 35 50 93 133 129 185 36 52 78 113 93 135 79 112 474 679 542
779 20 28 108 156 197 284 l162 232 -2169 0 -2170 0 0 -2500z"/>
<path d="M4970 4996 c0 -2 7 -9 15 -16 12 -10 15 -10 15 4 0 9 -7 16 -15 16
-8 0 -15 -2 -15 -4z"/>
</g>
</svg>
